<svg width="14" height="14" viewBox="0 0 14 14" fill="none" xmlns="http://www.w3.org/2000/svg">
<path d="M13.6564 6.32115H3.04305L9.39549 0.892578C9.49707 0.805078 9.4354 0.642578 9.30116 0.642578H7.69582C7.62508 0.642578 7.55796 0.667578 7.50536 0.712221L0.650451 6.56758C0.587668 6.62115 0.537316 6.68739 0.502808 6.76179C0.468299 6.8362 0.450439 6.91704 0.450439 6.99883C0.450439 7.08062 0.468299 7.16146 0.502808 7.23587C0.537316 7.31027 0.587668 7.3765 0.650451 7.43008L7.54526 13.3211C7.57247 13.3444 7.60512 13.3569 7.63959 13.3569H9.29935C9.43358 13.3569 9.49526 13.1926 9.39367 13.1069L3.04305 7.67829H13.6564C13.7363 7.67829 13.8016 7.61401 13.8016 7.53544V6.46401C13.8016 6.38544 13.7363 6.32115 13.6564 6.32115Z" fill="black" fill-opacity="0.85"/>
</svg>
