<svg width="41" height="40" viewBox="0 0 41 40" fill="none" xmlns="http://www.w3.org/2000/svg">
<path d="M23.3095 20.5651V15.4462C23.3095 15.2199 23.2196 15.0029 23.0596 14.8429C22.8996 14.6829 22.6826 14.593 22.4563 14.593H19.0437C18.8174 14.593 18.6004 14.6829 18.4404 14.8429C18.2804 15.0029 18.1905 15.2199 18.1905 15.4462V20.5651C18.1905 20.7914 18.1006 21.0084 17.9406 21.1684C17.7806 21.3284 17.5636 21.4183 17.3374 21.4183H12.2184C11.9921 21.4183 11.7751 21.3284 11.6151 21.1684C11.4551 21.0084 11.3652 20.7914 11.3652 20.5651V10.7005C11.3671 10.5824 11.3927 10.4659 11.4403 10.3578C11.4879 10.2498 11.5567 10.1523 11.6425 10.0713L20.1741 2.31817C20.3314 2.17428 20.5368 2.09448 20.75 2.09448C20.9632 2.09448 21.1686 2.17428 21.3259 2.31817L29.8575 10.0713C29.9433 10.1523 30.0121 10.2498 30.0597 10.3578C30.1073 10.4659 30.1328 10.5824 30.1347 10.7005V20.5651C30.1347 20.7914 30.0449 21.0084 29.8849 21.1684C29.7249 21.3284 29.5079 21.4183 29.2816 21.4183H24.1626C23.9364 21.4183 23.7194 21.3284 23.5594 21.1684C23.3994 21.0084 23.3095 20.7914 23.3095 20.5651Z" stroke="#999AAA" stroke-width="2" stroke-linecap="round" stroke-linejoin="round"/>
<path d="M19.2 30.74H16.09C16.15 30.5 16.2 30.25 16.24 30H20.22V29H17.88C18.02 28.72 18.16 28.41 18.29 28.07L17.26 27.7C17.1 28.16 16.92 28.59 16.72 29H14.74C14.57 28.51 14.39 28.08 14.19 27.72L13.17 28.11C13.34 28.39 13.49 28.68 13.63 29H11.28V30H15.13C15.1 30.24 15.06 30.49 15.01 30.74H12.3V37.06H13.34V36.71H18.16V37.06H19.2V30.74ZM13.34 35.77V34.99H18.16V35.77H13.34ZM13.34 34.09V33.33H18.16V34.09H13.34ZM13.34 32.43V31.68H18.16V32.43H13.34ZM28.99 29.88H26.11C26.18 29.62 26.24 29.36 26.29 29.08H30.19V28.1H21.31V29.08H25.16C25.12 29.36 25.07 29.62 25.01 29.88H22.47V34.78H23.52V30.9H27.94V34.78H28.99V29.88ZM26.51 34.62L25.93 35.49C27.1 35.87 28.24 36.39 29.35 37.07L30 36.08C28.95 35.5 27.79 35.02 26.51 34.62ZM25.22 31.33V32.92C25.16 33.74 24.88 34.41 24.38 34.92C23.87 35.39 22.88 35.79 21.42 36.11L22.02 37.04C23.48 36.7 24.54 36.23 25.18 35.61C25.85 34.94 26.22 34.04 26.28 32.92V31.33H25.22Z" fill="#999AAA"/>
</svg>
