<svg width="41" height="40" viewBox="0 0 41 40" fill="none" xmlns="http://www.w3.org/2000/svg">
<path d="M20.25 15C23.5637 15 26.25 12.3137 26.25 9C26.25 5.68629 23.5637 3 20.25 3C16.9363 3 14.25 5.68629 14.25 9C14.25 12.3137 16.9363 15 20.25 15Z" stroke="#999AAA" stroke-width="2" stroke-miterlimit="10"/>
<path d="M11.1562 20.2499C12.0778 18.6534 13.4033 17.3277 14.9996 16.406C16.5959 15.4843 18.4067 14.999 20.25 14.999C22.0933 14.999 23.9041 15.4843 25.5004 16.406C27.0967 17.3277 28.4222 18.6534 29.3438 20.2499" stroke="#999AAA" stroke-width="2" stroke-linecap="round" stroke-linejoin="round"/>
<path d="M15.36 32.33C14.84 32.51 14.28 32.67 13.7 32.82V31.34H15.84C15.92 32.06 16.03 32.69 16.18 33.23C16.27 33.57 16.37 33.9 16.48 34.22C15.79 34.84 14.98 35.32 14.06 35.66L14.64 36.55C15.47 36.23 16.23 35.79 16.91 35.23C17.06 35.53 17.23 35.79 17.41 36.02C17.88 36.61 18.34 36.91 18.78 36.91C19.27 36.91 19.64 36.19 19.9 34.76L18.97 34.27C18.85 35.27 18.74 35.78 18.63 35.78C18.49 35.78 18.27 35.56 17.99 35.12C17.88 34.96 17.77 34.75 17.67 34.51C18.28 33.85 18.81 33.06 19.25 32.16L18.35 31.68C18.05 32.3 17.69 32.87 17.28 33.38C17.24 33.24 17.2 33.1 17.16 32.94C17.05 32.52 16.96 31.99 16.9 31.34H19.81V30.34H16.82C16.76 29.6 16.73 28.76 16.72 27.8H15.67C15.67 28.72 15.69 29.57 15.75 30.34H13.7V29.17C14.15 29.05 14.58 28.92 14.99 28.77L14.63 27.79C13.55 28.23 12.31 28.52 10.93 28.67L11.15 29.66C11.67 29.59 12.16 29.51 12.64 29.41V30.34H10.69V31.34H12.64V33.06C12.03 33.19 11.38 33.31 10.7 33.41L10.85 34.46C11.47 34.36 12.06 34.25 12.64 34.13V35.64C12.64 35.86 12.52 35.98 12.29 35.98C11.97 35.98 11.64 35.96 11.29 35.92L11.52 36.91H12.65C13.35 36.91 13.7 36.57 13.7 35.91V33.88C14.28 33.73 14.83 33.57 15.36 33.39V32.33ZM17.82 27.89L17.12 28.56C17.88 29.06 18.46 29.52 18.87 29.96L19.62 29.21C19.12 28.77 18.52 28.33 17.82 27.89ZM24.42 29.41H22.9C23.08 28.95 23.23 28.44 23.34 27.9L22.29 27.76C22.21 28.33 22.08 28.88 21.9 29.41H20.94V36.71H21.94V35.92H23.42V36.42H24.42V29.41ZM21.94 34.96V33.07H23.42V34.96H21.94ZM21.94 32.14V30.39H23.42V32.14H21.94ZM26.24 31.84L25.39 32.37C26.01 33.17 26.51 33.9 26.88 34.56L27.72 33.98C27.37 33.36 26.88 32.65 26.24 31.84ZM29.57 29.41H26.53C26.68 28.93 26.81 28.42 26.91 27.88L25.88 27.75C25.64 29.12 25.2 30.28 24.54 31.22L25.17 32.05C25.54 31.57 25.86 31.03 26.13 30.43H28.55C28.53 33.26 28.5 34.91 28.44 35.39C28.38 35.78 28.17 35.98 27.81 35.98C27.48 35.98 27.09 35.96 26.65 35.93L26.9 36.88C27.42 36.92 27.78 36.94 27.98 36.94C28.84 36.94 29.32 36.59 29.42 35.89C29.52 35.07 29.57 32.91 29.57 29.41Z" fill="#999AAA"/>
</svg>
